<svg width="1920" height="1080" fill="none" xmlns="http://www.w3.org/2000/svg"><path fill="#1E1E1E" d="M0 0h1920v1080H0z"/><path fill="#E96D0B" d="M0 0h1920v1080H0z"/><path d="M584.935 583h-29l-7.25-35.25c-2.5-12-6.667-21.5-12.5-28.5-5.667-7-12.417-10.667-20.25-11h-29.5V583h-28.25V418.5h72c11.833 0 21.833 2.25 30 6.75 8.166 4.333 14.166 10 18 17 4 6.833 6 13.833 6 21 0 9.5-3.334 18.5-10 27-6.5 8.333-16.084 13.833-28.75 16.5 7.833 2.5 14.5 6.75 20 12.75s8.833 12.083 10 18.25l9.5 45.25zm-98.5-79.75h35.5c5.666 0 11.083-1.75 16.25-5.25 5.333-3.5 9.583-8.333 12.75-14.5 3.333-6.167 5-13 5-20.5 0-7.333-1.667-14-5-20-3.167-6.167-7.417-10.917-12.75-14.25-5.167-3.5-10.584-5.25-16.25-5.25h-35.5v79.75zm246.58 22.5h-89.75c0 9.167.583 17.5 1.75 25 1.166 7.5 4.083 14.167 8.75 20 4.833 5.667 12 8.5 21.5 8.5s18.416-2.25 26.75-6.75c8.333-4.5 15.083-10.75 20.25-18.75l4.5 3c-5.834 8.667-13.334 15.5-22.5 20.5-9 4.833-18.667 7.25-29 7.25-8.167 0-16-1.5-23.5-4.5-7.334-3.167-14-7.667-20-13.5-5.834-6-10.334-12.667-13.5-20-3-7.5-4.5-15.333-4.5-23.5s1.5-16 4.5-23.5 7.25-14.167 12.75-20c5.833-5.833 12.416-10.25 19.75-13.25 7.333-3.167 15.083-4.75 23.25-4.75 8.166 0 15.833 1.583 23 4.75 7.333 3 13.75 7.417 19.25 13.25 5.333 5.833 9.416 12.5 12.25 20 3 7.5 4.5 15.333 4.5 23.5v2.75zm-59.75-59c-9 .5-15.75 3.667-20.25 9.5-4.334 5.833-7.084 12.417-8.25 19.75-1 7.167-1.5 15.333-1.5 24.5h60.25c-.167-9.333-.834-17.583-2-24.75-1-7.167-3.75-13.667-8.25-19.5-4.334-5.833-11-9-20-9.5zm93.798-48.25h28.25V583h-28.25V418.5zM953.317 463v120h-28.25v-8.25c-10.166 6.5-21.25 9.75-33.25 9.75-8.166 0-16-1.5-23.5-4.5-7.333-3.167-14-7.667-20-13.5-5.833-6-10.333-12.667-13.5-20-3-7.5-4.5-15.333-4.5-23.5s1.5-16 4.5-23.5c3.167-7.5 7.667-14.167 13.5-20 6-5.833 12.667-10.25 20-13.25 7.5-3.167 15.334-4.75 23.5-4.75 12 0 23.084 3.25 33.25 9.75V463h28.25zm-61.5 116.25c12.5 0 23.584-3.583 33.25-10.75v-91c-9.666-7.167-20.75-10.75-33.25-10.75-10 0-17.333 3.167-22 9.5-4.666 6.167-7.5 13-8.5 20.5s-1.5 16.25-1.5 26.25.5 18.75 1.5 26.25 3.834 14.417 8.5 20.75c4.667 6.167 12 9.25 22 9.25zm171.733-2.5c-3.5 1-6.75 1.5-9.75 1.5-7.17 0-12.42-2.667-15.75-8-3.17-5.333-4.75-12.083-4.75-20.25v-79.25h23.5v-5.25h-23.5v-47h-28.25v47H979.8v5.25h25.25v67.75c0 7.833.75 14.5 2.25 20 1.67 5.5 4.25 10.083 7.75 13.75 4 4.333 9.33 7.5 16 9.5 6.83 1.833 12.67 2.75 17.5 2.75 3 0 6.17-.333 9.5-1 3.5-.5 5.83-1.083 7-1.75l-1.5-5zM1125.89 463h-28.25v120h28.25V463zm-28.25-31.75c0 3.833 1.33 7.167 4 10 2.83 2.667 6.25 4 10.25 4s7.33-1.333 10-4c2.83-2.833 4.25-6.167 4.25-10s-1.42-7.167-4.25-10-6.17-4.25-10-4.25-7.17 1.417-10 4.25-4.25 6.167-4.25 10zm168.98 48.25c5.83 5.833 10.25 12.5 13.25 20a59.935 59.935 0 0 1 4.75 23.5c0 8.167-1.59 16-4.75 23.5-3 7.333-7.42 14-13.25 20-5.84 5.833-12.5 10.333-20 13.5-7.5 3-15.34 4.5-23.5 4.5-8.17 0-16-1.5-23.5-4.5-7.34-3.167-14-7.667-20-13.5-5.84-6-10.34-12.667-13.5-20-3-7.5-4.5-15.333-4.5-23.5s1.5-16 4.5-23.5c3.16-7.5 7.66-14.167 13.5-20 6-5.833 12.66-10.25 20-13.25 7.5-3.167 15.33-4.75 23.5-4.75 8.16 0 16 1.583 23.5 4.75 7.5 3 14.16 7.417 20 13.25zm-43.5 99.75c10 0 17.33-3.083 22-9.25 4.66-6.333 7.5-13.25 8.5-20.75s1.5-16.25 1.5-26.25-.5-18.75-1.5-26.25-3.84-14.333-8.5-20.5c-4.67-6.333-12-9.5-22-9.5s-17.34 3.167-22 9.5c-4.67 6.167-7.5 13-8.5 20.5s-1.5 16.25-1.5 26.25.5 18.75 1.5 26.25 3.83 14.417 8.5 20.75c4.66 6.167 12 9.25 22 9.25z" fill="#DEDEDE"/><path d="M744.439 624.8V692h-6.816v-53.76l-26.4 45.216h-3.36l-26.4-44.928V692h-6.816v-67.2h5.856l29.184 49.824 28.896-49.824h5.856zm38.12 16.32c6.592 0 11.648 1.664 15.168 4.992 3.52 3.264 5.28 8.128 5.28 14.592V692h-6.528v-7.872c-1.536 2.624-3.808 4.672-6.816 6.144-2.944 1.472-6.464 2.208-10.56 2.208-5.632 0-10.112-1.344-13.44-4.032-3.328-2.688-4.992-6.24-4.992-10.656 0-4.288 1.536-7.744 4.608-10.368 3.136-2.624 8.096-3.936 14.88-3.936h16.032v-3.072c0-4.352-1.216-7.648-3.648-9.888-2.432-2.304-5.984-3.456-10.656-3.456-3.2 0-6.272.544-9.216 1.632-2.944 1.024-5.472 2.464-7.584 4.32l-3.072-5.088c2.56-2.176 5.632-3.84 9.216-4.992 3.584-1.216 7.36-1.824 11.328-1.824zm-2.4 45.984c3.84 0 7.136-.864 9.888-2.592 2.752-1.792 4.8-4.352 6.144-7.68v-8.256h-15.84c-8.64 0-12.96 3.008-12.96 9.024 0 2.944 1.12 5.28 3.36 7.008 2.24 1.664 5.376 2.496 9.408 2.496zm47.889-35.712c1.6-3.392 3.968-5.952 7.104-7.68 3.2-1.728 7.136-2.592 11.808-2.592v6.624l-1.632-.096c-5.312 0-9.472 1.632-12.48 4.896-3.008 3.264-4.512 7.84-4.512 13.728V692h-6.816v-50.496h6.528v9.888zm49.973 15.264L866.117 677.6V692h-6.816v-71.232h6.816v48.288l30.144-27.552h8.448l-21.6 20.64L906.725 692h-8.352l-20.352-25.344zm80.842 2.208h-42.24c.384 5.248 2.4 9.504 6.048 12.768 3.648 3.2 8.256 4.8 13.824 4.8 3.136 0 6.016-.544 8.64-1.632a19.388 19.388 0 0 0 6.816-4.992l3.84 4.416c-2.24 2.688-5.056 4.736-8.448 6.144-3.328 1.408-7.008 2.112-11.04 2.112-5.184 0-9.792-1.088-13.824-3.264-3.968-2.24-7.072-5.312-9.312-9.216-2.24-3.904-3.36-8.32-3.36-13.248 0-4.928 1.056-9.344 3.168-13.248 2.176-3.904 5.12-6.944 8.832-9.12 3.776-2.176 8-3.264 12.672-3.264 4.672 0 8.864 1.088 12.576 3.264 3.712 2.176 6.624 5.216 8.736 9.12 2.112 3.84 3.168 8.256 3.168 13.248l-.096 2.112zm-24.384-21.888c-4.864 0-8.96 1.568-12.288 4.704-3.264 3.072-5.12 7.104-5.568 12.096h35.808c-.448-4.992-2.336-9.024-5.664-12.096-3.264-3.136-7.36-4.704-12.288-4.704zm64.945 41.952c-1.28 1.152-2.88 2.048-4.8 2.688a19.645 19.645 0 0 1-5.856.864c-4.736 0-8.384-1.28-10.944-3.84-2.56-2.56-3.84-6.176-3.84-10.848v-30.528h-9.024v-5.76h9.024v-11.04h6.816v11.04h15.36v5.76H980.8v30.144c0 3.008.736 5.312 2.208 6.912 1.536 1.536 3.712 2.304 6.528 2.304 1.408 0 2.752-.224 4.032-.672 1.344-.448 2.496-1.088 3.456-1.92l2.4 4.896zm12.406-47.424h6.82V692h-6.82v-50.496zm3.46-11.04c-1.41 0-2.59-.48-3.55-1.44s-1.44-2.112-1.44-3.456c0-1.28.48-2.4 1.44-3.36s2.14-1.44 3.55-1.44c1.41 0 2.59.48 3.55 1.44.96.896 1.44 1.984 1.44 3.264 0 1.408-.48 2.592-1.44 3.552s-2.14 1.44-3.55 1.44zm48.05 10.656c6.34 0 11.36 1.856 15.07 5.568 3.78 3.648 5.67 8.992 5.67 16.032V692h-6.82v-28.608c0-5.248-1.31-9.248-3.93-12-2.63-2.752-6.37-4.128-11.24-4.128-5.44 0-9.76 1.632-12.96 4.896-3.13 3.2-4.7 7.648-4.7 13.344V692h-6.82v-50.496h6.53v9.312c1.86-3.072 4.42-5.44 7.68-7.104 3.33-1.728 7.17-2.592 11.52-2.592zm86.18.384v44.352c0 8.576-2.11 14.912-6.33 19.008-4.16 4.16-10.47 6.24-18.92 6.24-4.67 0-9.12-.704-13.34-2.112-4.16-1.344-7.55-3.232-10.18-5.664l3.46-5.184c2.43 2.176 5.38 3.872 8.83 5.088 3.52 1.216 7.2 1.824 11.04 1.824 6.4 0 11.11-1.504 14.11-4.512 3.01-2.944 4.52-7.552 4.52-13.824v-6.432c-2.12 3.2-4.9 5.632-8.36 7.296-3.39 1.664-7.16 2.496-11.32 2.496-4.74 0-9.06-1.024-12.96-3.072-3.84-2.112-6.88-5.024-9.12-8.736-2.18-3.776-3.27-8.032-3.27-12.768 0-4.736 1.09-8.96 3.27-12.672 2.24-3.712 5.28-6.592 9.12-8.64 3.84-2.048 8.16-3.072 12.96-3.072 4.28 0 8.16.864 11.61 2.592 3.46 1.728 6.24 4.224 8.35 7.488v-9.696h6.53zm-25.82 42.528c3.65 0 6.94-.768 9.89-2.304 2.94-1.6 5.21-3.808 6.81-6.624 1.67-2.816 2.5-6.016 2.5-9.6 0-3.584-.83-6.752-2.5-9.504-1.6-2.816-3.87-4.992-6.81-6.528-2.88-1.6-6.18-2.4-9.89-2.4-3.65 0-6.95.768-9.89 2.304-2.88 1.536-5.15 3.712-6.82 6.528-1.6 2.816-2.4 6.016-2.4 9.6 0 3.584.8 6.784 2.4 9.6 1.67 2.816 3.94 5.024 6.82 6.624 2.94 1.536 6.24 2.304 9.89 2.304zm71.45-59.232h27.36c7.1 0 13.37 1.44 18.81 4.32 5.44 2.816 9.67 6.784 12.68 11.904 3 5.056 4.51 10.848 4.51 17.376 0 6.528-1.51 12.352-4.51 17.472-3.01 5.056-7.24 9.024-12.68 11.904-5.44 2.816-11.71 4.224-18.81 4.224h-27.36v-67.2zm26.97 61.056c5.89 0 11.04-1.152 15.46-3.456 4.42-2.368 7.84-5.6 10.27-9.696 2.43-4.16 3.65-8.928 3.65-14.304 0-5.376-1.22-10.112-3.65-14.208-2.43-4.16-5.85-7.392-10.27-9.696-4.42-2.368-9.57-3.552-15.46-3.552h-19.87v54.912h19.87zm50.9-44.352h6.82V692h-6.82v-50.496zm3.46-11.04c-1.41 0-2.6-.48-3.56-1.44s-1.44-2.112-1.44-3.456c0-1.28.48-2.4 1.44-3.36s2.15-1.44 3.56-1.44c1.4 0 2.59.48 3.55 1.44.96.896 1.44 1.984 1.44 3.264 0 1.408-.48 2.592-1.44 3.552s-2.15 1.44-3.55 1.44zm69.07 11.04v44.352c0 8.576-2.11 14.912-6.33 19.008-4.16 4.16-10.47 6.24-18.92 6.24-4.67 0-9.12-.704-13.34-2.112-4.16-1.344-7.55-3.232-10.18-5.664l3.46-5.184c2.43 2.176 5.38 3.872 8.83 5.088 3.52 1.216 7.2 1.824 11.04 1.824 6.4 0 11.11-1.504 14.11-4.512 3.01-2.944 4.52-7.552 4.52-13.824v-6.432c-2.12 3.2-4.9 5.632-8.36 7.296-3.39 1.664-7.16 2.496-11.32 2.496-4.74 0-9.06-1.024-12.96-3.072-3.84-2.112-6.88-5.024-9.12-8.736-2.18-3.776-3.27-8.032-3.27-12.768 0-4.736 1.09-8.96 3.27-12.672 2.24-3.712 5.28-6.592 9.12-8.64 3.84-2.048 8.16-3.072 12.96-3.072 4.28 0 8.16.864 11.61 2.592 3.46 1.728 6.24 4.224 8.35 7.488v-9.696h6.53zm-25.82 42.528c3.65 0 6.94-.768 9.89-2.304 2.94-1.6 5.21-3.808 6.81-6.624 1.67-2.816 2.5-6.016 2.5-9.6 0-3.584-.83-6.752-2.5-9.504-1.6-2.816-3.87-4.992-6.81-6.528-2.88-1.6-6.18-2.4-9.89-2.4-3.65 0-6.95.768-9.89 2.304-2.88 1.536-5.15 3.712-6.82 6.528-1.6 2.816-2.4 6.016-2.4 9.6 0 3.584.8 6.784 2.4 9.6 1.67 2.816 3.94 5.024 6.82 6.624 2.94 1.536 6.24 2.304 9.89 2.304zm44.88-42.528h6.82V692h-6.82v-50.496zm3.46-11.04c-1.41 0-2.59-.48-3.55-1.44s-1.44-2.112-1.44-3.456c0-1.28.48-2.4 1.44-3.36s2.14-1.44 3.55-1.44c1.41 0 2.59.48 3.55 1.44.96.896 1.44 1.984 1.44 3.264 0 1.408-.48 2.592-1.44 3.552s-2.14 1.44-3.55 1.44zm48.92 58.464c-1.28 1.152-2.88 2.048-4.8 2.688a19.68 19.68 0 0 1-5.86.864c-4.74 0-8.38-1.28-10.94-3.84-2.56-2.56-3.84-6.176-3.84-10.848v-30.528h-9.03v-5.76h9.03v-11.04h6.81v11.04h15.36v5.76h-15.36v30.144c0 3.008.74 5.312 2.21 6.912 1.54 1.536 3.71 2.304 6.53 2.304 1.41 0 2.75-.224 4.03-.672 1.34-.448 2.5-1.088 3.46-1.92l2.4 4.896zm30.07-47.808c6.59 0 11.65 1.664 15.17 4.992 3.52 3.264 5.28 8.128 5.28 14.592V692h-6.53v-7.872c-1.54 2.624-3.81 4.672-6.82 6.144-2.94 1.472-6.46 2.208-10.56 2.208-5.63 0-10.11-1.344-13.44-4.032-3.33-2.688-4.99-6.24-4.99-10.656 0-4.288 1.54-7.744 4.61-10.368 3.13-2.624 8.09-3.936 14.88-3.936h16.03v-3.072c0-4.352-1.22-7.648-3.65-9.888-2.43-2.304-5.98-3.456-10.65-3.456-3.2 0-6.28.544-9.22 1.632-2.94 1.024-5.47 2.464-7.58 4.32l-3.08-5.088c2.56-2.176 5.64-3.84 9.22-4.992 3.58-1.216 7.36-1.824 11.33-1.824zm-2.4 45.984c3.84 0 7.13-.864 9.89-2.592 2.75-1.792 4.8-4.352 6.14-7.68v-8.256h-15.84c-8.64 0-12.96 3.008-12.96 9.024 0 2.944 1.12 5.28 3.36 7.008 2.24 1.664 5.38 2.496 9.41 2.496zm41.36-66.336h6.82V692h-6.82v-71.232z" fill="#0C6980"/></svg>