<svg width="1920" height="1080" viewBox="0 0 1920 1080" fill="none" xmlns="http://www.w3.org/2000/svg">
<rect width="1920" height="1080" fill="#1E1E1E"/>
<rect width="1920" height="1080" fill="#E96D0B"/>
<path d="M584.935 583H555.935L548.685 547.75C546.185 535.75 542.018 526.25 536.185 519.25C530.518 512.25 523.768 508.583 515.935 508.25H486.435V583H458.185V418.5H530.185C542.018 418.5 552.018 420.75 560.185 425.25C568.351 429.583 574.351 435.25 578.185 442.25C582.185 449.083 584.185 456.083 584.185 463.25C584.185 472.75 580.851 481.75 574.185 490.25C567.685 498.583 558.101 504.083 545.435 506.75C553.268 509.25 559.935 513.5 565.435 519.5C570.935 525.5 574.268 531.583 575.435 537.75L584.935 583ZM486.435 503.25H521.935C527.601 503.25 533.018 501.5 538.185 498C543.518 494.5 547.768 489.667 550.935 483.5C554.268 477.333 555.935 470.5 555.935 463C555.935 455.667 554.268 449 550.935 443C547.768 436.833 543.518 432.083 538.185 428.75C533.018 425.25 527.601 423.5 521.935 423.5H486.435V503.25ZM733.015 525.75H643.265C643.265 534.917 643.848 543.25 645.015 550.75C646.181 558.25 649.098 564.917 653.765 570.75C658.598 576.417 665.765 579.25 675.265 579.25C684.765 579.25 693.681 577 702.015 572.5C710.348 568 717.098 561.75 722.265 553.75L726.765 556.75C720.931 565.417 713.431 572.25 704.265 577.25C695.265 582.083 685.598 584.5 675.265 584.5C667.098 584.5 659.265 583 651.765 580C644.431 576.833 637.765 572.333 631.765 566.5C625.931 560.5 621.431 553.833 618.265 546.5C615.265 539 613.765 531.167 613.765 523C613.765 514.833 615.265 507 618.265 499.5C621.265 492 625.515 485.333 631.015 479.5C636.848 473.667 643.431 469.25 650.765 466.25C658.098 463.083 665.848 461.5 674.015 461.5C682.181 461.5 689.848 463.083 697.015 466.25C704.348 469.25 710.765 473.667 716.265 479.5C721.598 485.333 725.681 492 728.515 499.5C731.515 507 733.015 514.833 733.015 523V525.75ZM673.265 466.75C664.265 467.25 657.515 470.417 653.015 476.25C648.681 482.083 645.931 488.667 644.765 496C643.765 503.167 643.265 511.333 643.265 520.5H703.515C703.348 511.167 702.681 502.917 701.515 495.75C700.515 488.583 697.765 482.083 693.265 476.25C688.931 470.417 682.265 467.25 673.265 466.75ZM767.063 418.5H795.313V583H767.063V418.5ZM953.317 463V583H925.067V574.75C914.901 581.25 903.817 584.5 891.817 584.5C883.651 584.5 875.817 583 868.317 580C860.984 576.833 854.317 572.333 848.317 566.5C842.484 560.5 837.984 553.833 834.817 546.5C831.817 539 830.317 531.167 830.317 523C830.317 514.833 831.817 507 834.817 499.5C837.984 492 842.484 485.333 848.317 479.5C854.317 473.667 860.984 469.25 868.317 466.25C875.817 463.083 883.651 461.5 891.817 461.5C903.817 461.5 914.901 464.75 925.067 471.25V463H953.317ZM891.817 579.25C904.317 579.25 915.401 575.667 925.067 568.5V477.5C915.401 470.333 904.317 466.75 891.817 466.75C881.817 466.75 874.484 469.917 869.817 476.25C865.151 482.417 862.317 489.25 861.317 496.75C860.317 504.25 859.817 513 859.817 523C859.817 533 860.317 541.75 861.317 549.25C862.317 556.75 865.151 563.667 869.817 570C874.484 576.167 881.817 579.25 891.817 579.25ZM1063.55 576.75C1060.05 577.75 1056.8 578.25 1053.8 578.25C1046.63 578.25 1041.38 575.583 1038.05 570.25C1034.88 564.917 1033.3 558.167 1033.3 550V470.75H1056.8V465.5H1033.3V418.5H1005.05V465.5H979.8V470.75H1005.05V538.5C1005.05 546.333 1005.8 553 1007.3 558.5C1008.97 564 1011.55 568.583 1015.05 572.25C1019.05 576.583 1024.38 579.75 1031.05 581.75C1037.88 583.583 1043.72 584.5 1048.55 584.5C1051.55 584.5 1054.72 584.167 1058.05 583.5C1061.55 583 1063.88 582.417 1065.05 581.75L1063.55 576.75ZM1125.89 463H1097.64V583H1125.89V463ZM1097.64 431.25C1097.64 435.083 1098.97 438.417 1101.64 441.25C1104.47 443.917 1107.89 445.25 1111.89 445.25C1115.89 445.25 1119.22 443.917 1121.89 441.25C1124.72 438.417 1126.14 435.083 1126.14 431.25C1126.14 427.417 1124.72 424.083 1121.89 421.25C1119.06 418.417 1115.72 417 1111.89 417C1108.06 417 1104.72 418.417 1101.89 421.25C1099.06 424.083 1097.64 427.417 1097.64 431.25ZM1266.62 479.5C1272.45 485.333 1276.87 492 1279.87 499.5C1283.03 507 1284.62 514.833 1284.62 523C1284.62 531.167 1283.03 539 1279.87 546.5C1276.87 553.833 1272.45 560.5 1266.62 566.5C1260.78 572.333 1254.12 576.833 1246.62 580C1239.12 583 1231.28 584.5 1223.12 584.5C1214.95 584.5 1207.12 583 1199.62 580C1192.28 576.833 1185.62 572.333 1179.62 566.5C1173.78 560.5 1169.28 553.833 1166.12 546.5C1163.12 539 1161.62 531.167 1161.62 523C1161.62 514.833 1163.12 507 1166.12 499.5C1169.28 492 1173.78 485.333 1179.62 479.5C1185.62 473.667 1192.28 469.25 1199.62 466.25C1207.12 463.083 1214.95 461.5 1223.12 461.5C1231.28 461.5 1239.12 463.083 1246.62 466.25C1254.12 469.25 1260.78 473.667 1266.62 479.5ZM1223.12 579.25C1233.12 579.25 1240.45 576.167 1245.12 570C1249.78 563.667 1252.62 556.75 1253.62 549.25C1254.62 541.75 1255.12 533 1255.12 523C1255.12 513 1254.62 504.25 1253.62 496.75C1252.62 489.25 1249.78 482.417 1245.12 476.25C1240.45 469.917 1233.12 466.75 1223.12 466.75C1213.12 466.75 1205.78 469.917 1201.12 476.25C1196.45 482.417 1193.62 489.25 1192.62 496.75C1191.62 504.25 1191.12 513 1191.12 523C1191.12 533 1191.62 541.75 1192.62 549.25C1193.62 556.75 1196.45 563.667 1201.12 570C1205.78 576.167 1213.12 579.25 1223.12 579.25Z" fill="#DEDEDE"/>
<path d="M744.439 624.8V692H737.623V638.24L711.223 683.456H707.863L681.463 638.528V692H674.647V624.8H680.503L709.687 674.624L738.583 624.8H744.439ZM782.559 641.12C789.151 641.12 794.207 642.784 797.727 646.112C801.247 649.376 803.007 654.24 803.007 660.704V692H796.479V684.128C794.943 686.752 792.671 688.8 789.663 690.272C786.719 691.744 783.199 692.48 779.103 692.48C773.471 692.48 768.991 691.136 765.663 688.448C762.335 685.76 760.671 682.208 760.671 677.792C760.671 673.504 762.207 670.048 765.279 667.424C768.415 664.8 773.375 663.488 780.159 663.488H796.191V660.416C796.191 656.064 794.975 652.768 792.543 650.528C790.111 648.224 786.559 647.072 781.887 647.072C778.687 647.072 775.615 647.616 772.671 648.704C769.727 649.728 767.199 651.168 765.087 653.024L762.015 647.936C764.575 645.76 767.647 644.096 771.231 642.944C774.815 641.728 778.591 641.12 782.559 641.12ZM780.159 687.104C783.999 687.104 787.295 686.24 790.047 684.512C792.799 682.72 794.847 680.16 796.191 676.832V668.576H780.351C771.711 668.576 767.391 671.584 767.391 677.6C767.391 680.544 768.511 682.88 770.751 684.608C772.991 686.272 776.127 687.104 780.159 687.104ZM828.048 651.392C829.648 648 832.016 645.44 835.152 643.712C838.352 641.984 842.288 641.12 846.96 641.12V647.744L845.328 647.648C840.016 647.648 835.856 649.28 832.848 652.544C829.84 655.808 828.336 660.384 828.336 666.272V692H821.52V641.504H828.048V651.392ZM878.021 666.656L866.117 677.6V692H859.301V620.768H866.117V669.056L896.261 641.504H904.709L883.109 662.144L906.725 692H898.373L878.021 666.656ZM958.863 668.864H916.623C917.007 674.112 919.023 678.368 922.671 681.632C926.319 684.832 930.927 686.432 936.495 686.432C939.631 686.432 942.511 685.888 945.135 684.8C947.759 683.648 950.031 681.984 951.951 679.808L955.791 684.224C953.551 686.912 950.735 688.96 947.343 690.368C944.015 691.776 940.335 692.48 936.303 692.48C931.119 692.48 926.511 691.392 922.479 689.216C918.511 686.976 915.407 683.904 913.167 680C910.927 676.096 909.807 671.68 909.807 666.752C909.807 661.824 910.863 657.408 912.975 653.504C915.151 649.6 918.095 646.56 921.807 644.384C925.583 642.208 929.807 641.12 934.479 641.12C939.151 641.12 943.343 642.208 947.055 644.384C950.767 646.56 953.679 649.6 955.791 653.504C957.903 657.344 958.959 661.76 958.959 666.752L958.863 668.864ZM934.479 646.976C929.615 646.976 925.519 648.544 922.191 651.68C918.927 654.752 917.071 658.784 916.623 663.776H952.431C951.983 658.784 950.095 654.752 946.767 651.68C943.503 648.544 939.407 646.976 934.479 646.976ZM999.424 688.928C998.144 690.08 996.544 690.976 994.624 691.616C992.768 692.192 990.816 692.48 988.768 692.48C984.032 692.48 980.384 691.2 977.824 688.64C975.264 686.08 973.984 682.464 973.984 677.792V647.264H964.96V641.504H973.984V630.464H980.8V641.504H996.16V647.264H980.8V677.408C980.8 680.416 981.536 682.72 983.008 684.32C984.544 685.856 986.72 686.624 989.536 686.624C990.944 686.624 992.288 686.4 993.568 685.952C994.912 685.504 996.064 684.864 997.024 684.032L999.424 688.928ZM1011.83 641.504H1018.65V692H1011.83V641.504ZM1015.29 630.464C1013.88 630.464 1012.7 629.984 1011.74 629.024C1010.78 628.064 1010.3 626.912 1010.3 625.568C1010.3 624.288 1010.78 623.168 1011.74 622.208C1012.7 621.248 1013.88 620.768 1015.29 620.768C1016.7 620.768 1017.88 621.248 1018.84 622.208C1019.8 623.104 1020.28 624.192 1020.28 625.472C1020.28 626.88 1019.8 628.064 1018.84 629.024C1017.88 629.984 1016.7 630.464 1015.29 630.464ZM1063.34 641.12C1069.68 641.12 1074.7 642.976 1078.41 646.688C1082.19 650.336 1084.08 655.68 1084.08 662.72V692H1077.26V663.392C1077.26 658.144 1075.95 654.144 1073.33 651.392C1070.7 648.64 1066.96 647.264 1062.09 647.264C1056.65 647.264 1052.33 648.896 1049.13 652.16C1046 655.36 1044.43 659.808 1044.43 665.504V692H1037.61V641.504H1044.14V650.816C1046 647.744 1048.56 645.376 1051.82 643.712C1055.15 641.984 1058.99 641.12 1063.34 641.12ZM1149.52 641.504V685.856C1149.52 694.432 1147.41 700.768 1143.19 704.864C1139.03 709.024 1132.72 711.104 1124.27 711.104C1119.6 711.104 1115.15 710.4 1110.93 708.992C1106.77 707.648 1103.38 705.76 1100.75 703.328L1104.21 698.144C1106.64 700.32 1109.59 702.016 1113.04 703.232C1116.56 704.448 1120.24 705.056 1124.08 705.056C1130.48 705.056 1135.19 703.552 1138.19 700.544C1141.2 697.6 1142.71 692.992 1142.71 686.72V680.288C1140.59 683.488 1137.81 685.92 1134.35 687.584C1130.96 689.248 1127.19 690.08 1123.03 690.08C1118.29 690.08 1113.97 689.056 1110.07 687.008C1106.23 684.896 1103.19 681.984 1100.95 678.272C1098.77 674.496 1097.68 670.24 1097.68 665.504C1097.68 660.768 1098.77 656.544 1100.95 652.832C1103.19 649.12 1106.23 646.24 1110.07 644.192C1113.91 642.144 1118.23 641.12 1123.03 641.12C1127.31 641.12 1131.19 641.984 1134.64 643.712C1138.1 645.44 1140.88 647.936 1142.99 651.2V641.504H1149.52ZM1123.7 684.032C1127.35 684.032 1130.64 683.264 1133.59 681.728C1136.53 680.128 1138.8 677.92 1140.4 675.104C1142.07 672.288 1142.9 669.088 1142.9 665.504C1142.9 661.92 1142.07 658.752 1140.4 656C1138.8 653.184 1136.53 651.008 1133.59 649.472C1130.71 647.872 1127.41 647.072 1123.7 647.072C1120.05 647.072 1116.75 647.84 1113.81 649.376C1110.93 650.912 1108.66 653.088 1106.99 655.904C1105.39 658.72 1104.59 661.92 1104.59 665.504C1104.59 669.088 1105.39 672.288 1106.99 675.104C1108.66 677.92 1110.93 680.128 1113.81 681.728C1116.75 683.264 1120.05 684.032 1123.7 684.032ZM1195.15 624.8H1222.51C1229.61 624.8 1235.88 626.24 1241.32 629.12C1246.76 631.936 1250.99 635.904 1254 641.024C1257 646.08 1258.51 651.872 1258.51 658.4C1258.51 664.928 1257 670.752 1254 675.872C1250.99 680.928 1246.76 684.896 1241.32 687.776C1235.88 690.592 1229.61 692 1222.51 692H1195.15V624.8ZM1222.12 685.856C1228.01 685.856 1233.16 684.704 1237.58 682.4C1242 680.032 1245.42 676.8 1247.85 672.704C1250.28 668.544 1251.5 663.776 1251.5 658.4C1251.5 653.024 1250.28 648.288 1247.85 644.192C1245.42 640.032 1242 636.8 1237.58 634.496C1233.16 632.128 1228.01 630.944 1222.12 630.944H1202.25V685.856H1222.12ZM1273.02 641.504H1279.84V692H1273.02V641.504ZM1276.48 630.464C1275.07 630.464 1273.88 629.984 1272.92 629.024C1271.96 628.064 1271.48 626.912 1271.48 625.568C1271.48 624.288 1271.96 623.168 1272.92 622.208C1273.88 621.248 1275.07 620.768 1276.48 620.768C1277.88 620.768 1279.07 621.248 1280.03 622.208C1280.99 623.104 1281.47 624.192 1281.47 625.472C1281.47 626.88 1280.99 628.064 1280.03 629.024C1279.07 629.984 1277.88 630.464 1276.48 630.464ZM1345.55 641.504V685.856C1345.55 694.432 1343.44 700.768 1339.22 704.864C1335.06 709.024 1328.75 711.104 1320.3 711.104C1315.63 711.104 1311.18 710.4 1306.96 708.992C1302.8 707.648 1299.41 705.76 1296.78 703.328L1300.24 698.144C1302.67 700.32 1305.62 702.016 1309.07 703.232C1312.59 704.448 1316.27 705.056 1320.11 705.056C1326.51 705.056 1331.22 703.552 1334.22 700.544C1337.23 697.6 1338.74 692.992 1338.74 686.72V680.288C1336.62 683.488 1333.84 685.92 1330.38 687.584C1326.99 689.248 1323.22 690.08 1319.06 690.08C1314.32 690.08 1310 689.056 1306.1 687.008C1302.26 684.896 1299.22 681.984 1296.98 678.272C1294.8 674.496 1293.71 670.24 1293.71 665.504C1293.71 660.768 1294.8 656.544 1296.98 652.832C1299.22 649.12 1302.26 646.24 1306.1 644.192C1309.94 642.144 1314.26 641.12 1319.06 641.12C1323.34 641.12 1327.22 641.984 1330.67 643.712C1334.13 645.44 1336.91 647.936 1339.02 651.2V641.504H1345.55ZM1319.73 684.032C1323.38 684.032 1326.67 683.264 1329.62 681.728C1332.56 680.128 1334.83 677.92 1336.43 675.104C1338.1 672.288 1338.93 669.088 1338.93 665.504C1338.93 661.92 1338.1 658.752 1336.43 656C1334.83 653.184 1332.56 651.008 1329.62 649.472C1326.74 647.872 1323.44 647.072 1319.73 647.072C1316.08 647.072 1312.78 647.84 1309.84 649.376C1306.96 650.912 1304.69 653.088 1303.02 655.904C1301.42 658.72 1300.62 661.92 1300.62 665.504C1300.62 669.088 1301.42 672.288 1303.02 675.104C1304.69 677.92 1306.96 680.128 1309.84 681.728C1312.78 683.264 1316.08 684.032 1319.73 684.032ZM1364.61 641.504H1371.43V692H1364.61V641.504ZM1368.07 630.464C1366.66 630.464 1365.48 629.984 1364.52 629.024C1363.56 628.064 1363.08 626.912 1363.08 625.568C1363.08 624.288 1363.56 623.168 1364.52 622.208C1365.48 621.248 1366.66 620.768 1368.07 620.768C1369.48 620.768 1370.66 621.248 1371.62 622.208C1372.58 623.104 1373.06 624.192 1373.06 625.472C1373.06 626.88 1372.58 628.064 1371.62 629.024C1370.66 629.984 1369.48 630.464 1368.07 630.464ZM1416.99 688.928C1415.71 690.08 1414.11 690.976 1412.19 691.616C1410.33 692.192 1408.38 692.48 1406.33 692.48C1401.59 692.48 1397.95 691.2 1395.39 688.64C1392.83 686.08 1391.55 682.464 1391.55 677.792V647.264H1382.52V641.504H1391.55V630.464H1398.36V641.504H1413.72V647.264H1398.36V677.408C1398.36 680.416 1399.1 682.72 1400.57 684.32C1402.11 685.856 1404.28 686.624 1407.1 686.624C1408.51 686.624 1409.85 686.4 1411.13 685.952C1412.47 685.504 1413.63 684.864 1414.59 684.032L1416.99 688.928ZM1447.06 641.12C1453.65 641.12 1458.71 642.784 1462.23 646.112C1465.75 649.376 1467.51 654.24 1467.51 660.704V692H1460.98V684.128C1459.44 686.752 1457.17 688.8 1454.16 690.272C1451.22 691.744 1447.7 692.48 1443.6 692.48C1437.97 692.48 1433.49 691.136 1430.16 688.448C1426.83 685.76 1425.17 682.208 1425.17 677.792C1425.17 673.504 1426.71 670.048 1429.78 667.424C1432.91 664.8 1437.87 663.488 1444.66 663.488H1460.69V660.416C1460.69 656.064 1459.47 652.768 1457.04 650.528C1454.61 648.224 1451.06 647.072 1446.39 647.072C1443.19 647.072 1440.11 647.616 1437.17 648.704C1434.23 649.728 1431.7 651.168 1429.59 653.024L1426.51 647.936C1429.07 645.76 1432.15 644.096 1435.73 642.944C1439.31 641.728 1443.09 641.12 1447.06 641.12ZM1444.66 687.104C1448.5 687.104 1451.79 686.24 1454.55 684.512C1457.3 682.72 1459.35 680.16 1460.69 676.832V668.576H1444.85C1436.21 668.576 1431.89 671.584 1431.89 677.6C1431.89 680.544 1433.01 682.88 1435.25 684.608C1437.49 686.272 1440.63 687.104 1444.66 687.104ZM1486.02 620.768H1492.84V692H1486.02V620.768Z" fill="#0C6980"/>
</svg>
