<svg width="68" height="86" fill="none" xmlns="http://www.w3.org/2000/svg"><path d="M64 27.965V1H1v83h63V27.965z" stroke="#5B4EF0" stroke-width="2" stroke-miterlimit="10"/><path d="M42.782 85.056c-13.92 0-24.384-10.944-24.384-24.288 0-13.728 10.368-24.384 24.096-24.384 7.872 0 14.784 4.032 18.72 9.984l.096-30.336h5.952v44.736c0 13.632-10.752 24.288-24.48 24.288zm0-5.664c10.368 0 18.528-8.448 18.528-18.624 0-10.176-8.16-18.72-18.528-18.72-10.272 0-18.432 8.544-18.432 18.72 0 10.176 8.16 18.624 18.432 18.624z" fill="#fff"/><path d="M24 59h43" stroke="#fff" stroke-width="5" stroke-miterlimit="10"/></svg>